Simulation
nRows=42
nColumns=15
endheader
time  TH_x TH_y TH_z SC_y  SC_z  SC_x  AC_y  AC_z  AC_x  GH_y  GH_z  GH_yy  EL_x  PS_y
1.3949999999999996  0.000000  0.000000  0.000000  -26.84802609598547  15.49806741713858  32.47056156492679  72.45611776874277  8.586776601653664  6.7167652546347885  31.648431968580077  62.2397462328966  -52.02842904260326  26.001508392243803  120.000000
1.4228999999999996  0.000000  0.000000  0.000000  -27.029341042482606  15.600257967897665  33.079949819448814  72.55860287220796  8.221220105323953  6.861339914827096  31.47503330310582  62.117035733606386  -52.214061044845025  26.183099930844573  120.000000
1.4507999999999994  0.000000  0.000000  0.000000  -27.12446835368233  15.606835372108348  33.548251002243354  72.63462247679034  7.873647754050815  6.830178579169098  31.4615574414998  61.9558452070438  -52.42979840222883  26.32055550803096  120.000000
1.4786999999999995  0.000000  0.000000  0.000000  -27.140291204510127  15.49968091523965  33.87115611343271  72.71273525738111  7.554506853518881  6.623847627648359  31.598588830050545  61.76256138365023  -52.673942857093785  26.4137235410108  120.000000
1.5065999999999995  0.000000  0.000000  0.000000  -27.073120306992557  15.277873967581485  34.04119182609463  72.79205393874162  7.268811796162393  6.243740435774711  31.87246275588569  61.548287412134435  -52.93820329836312  26.463239967349914  120.000000
1.5344999999999995  0.000000  0.000000  0.000000  -26.91483095629193  14.961767113935165  34.0546420609481  72.84262281169342  7.015779487780413  5.693365643113543  32.26777218722744  61.324326072277735  -53.20960889987175  26.47004624653698  120.000000
1.5623999999999996  0.000000  0.000000  0.000000  -26.659504387215513  14.568735407593469  33.90788467575597  72.84099501244363  6.795257283136438  4.98257596844332  32.76161971961065  61.10525493718621  -53.46870756020427  26.435291602864353  120.000000
1.5902999999999994  0.000000  0.000000  0.000000  -26.310430191954246  14.11451348688245  33.606265120903544  72.7792236544192  6.60779900811093  4.130694465401654  33.32724850928008  60.901914626049724  -53.694719062347005  26.35961298859128  120.000000
1.6181999999999994  0.000000  0.000000  0.000000  -25.873454312091297  13.605389651826972  33.15509023530643  72.65988777214965  6.456833433069941  3.16132920200856  33.93667170286739  60.723805930269506  -53.86750774013003  26.24483266974009  120.000000
1.6460999999999995  0.000000  0.000000  0.000000  -25.36283538062764  13.046043579141015  32.568303602092485  72.49097925881485  6.345820986098804  2.0987314662884136  34.565998262767  60.57353892232141  -53.973354620842855  26.093125949376994  120.000000
1.6739999999999995  0.000000  0.000000  0.000000  -24.793485425036604  12.43773300696492  31.856892581662088  72.28198731063252  6.279748128472501  0.9653936814931029  35.1941069379936  60.45237250675694  -54.004592248777584  25.908242432095957  120.000000
1.7018999999999995  0.000000  0.000000  0.000000  -24.186231557004852  11.782412932513633  31.037105412626545  72.0425888672762  6.260731236873212  -0.21847412256205262  35.806361282439326  60.35590740185094  -53.96109950909687  25.69384898212079  120.000000
1.7297999999999993  0.000000  0.000000  0.000000  -23.55882381844777  11.081705346540733  30.120147413921696  71.78051539523855  6.290850827249875  -1.4358190581342865  36.392021667057534  60.279140339540625  -53.84695209968063  25.45408253938546  120.000000
1.7576999999999994  0.000000  0.000000  0.000000  -22.929967949921064  10.339070703266463  29.120589383170742  71.50179663985887  6.368560310968293  -2.6715977783682727  36.94628473503572  60.21292549553963  -53.668555307077334  25.191737995058148  120.000000
1.7855999999999994  0.000000  0.000000  0.000000  -22.31263916292124  9.558515531401019  28.04780411925301  71.20983945677219  6.491213854266901  -3.9125238331329784  37.46709491157495  60.147866530666064  -53.430725709456084  24.908394887696293  120.000000
1.8134999999999994  0.000000  0.000000  0.000000  -21.71735168182167  8.746422170475789  26.913445230217924  70.90571289446848  6.65209745006307  -5.146113565631937  37.95544225949388  60.071202815325464  -53.13538914416226  24.603417829885192  120.000000
1.8413999999999995  0.000000  0.000000  0.000000  -21.150022164465504  7.910117185610282  25.724788121106016  70.58741974097728  6.84305963408828  -6.360847692325795  38.41304976486146  59.9695056343013  -52.780327551365  24.274956029022334  120.000000
1.8692999999999993  0.000000  0.000000  0.000000  -20.614008418108625  7.059160908631981  24.491694110595624  70.24998242390294  7.053109022816079  -7.545433619258488  38.84320298460002  59.82601988368478  -52.36117061753247  23.920908288003137  120.000000
1.8971999999999993  0.000000  0.000000  0.000000  -20.10737107659545  6.203114681396872  23.22219033513767  69.88747867120532  7.272434355282731  -8.686430817325089  39.25332342216593  59.625393551350996  -51.87394810042671  23.54264355766461  120.000000
1.9250999999999994  0.000000  0.000000  0.000000  -19.624005344953115  5.35329436713443  21.927967441862492  69.49425057590314  7.491681737550788  -9.769505676545004  39.6547620590446  59.35106567564285  -51.3176659005184  23.146615824773548  120.000000
1.9529999999999994  0.000000  0.000000  0.000000  -19.15678347974298  4.521705935823227  20.617722591642774  69.0645353768943  7.703165938582237  -10.782009854625143  40.05854407771836  58.98589037980904  -50.69467090742659  22.744190729159612  120.000000
1.9808999999999994  0.000000  0.000000  0.000000  -18.700869747783525  3.720043787234482  19.301149854497854  68.59217831281755  7.8992655887550205  -11.713413360636993  40.472396568991385  58.50964385695696  -50.00979807446388  22.35085223596494  120.000000
2.0087999999999995  0.000000  0.000000  0.000000  -18.25297529312515  2.9586736570595944  17.985377480854996  68.07235594270253  8.073277012492358  -12.554895633914404  40.89969237353918  57.90311036396295  -49.27013771461681  21.984430273424874  120.000000
2.0366999999999993  0.000000  0.000000  0.000000  -17.81294893703612  2.2460402017257137  16.67891002034191  67.50285040365935  8.219796226913836  -13.30034976697517  41.33866050837691  57.14758120320533  -48.482209673862386  21.662886889959506  120.000000
2.064599999999999  0.000000  0.000000  0.000000  -17.38149929890861  1.5887364641523  15.38860546805843  66.88464818422453  8.335436101985215  -13.945870834165387  41.78166638465689  56.22898833777656  -47.650811182310605  21.40152007350338  120.000000
2.0924999999999994  0.000000  0.000000  0.000000  -16.96118179177907  0.9898950781660265  14.121908862371598  66.22305889924287  8.419269219268857  -14.490418157552146  42.217042614815284  55.13701722172027  -46.77731013747498  21.21131496621844  120.000000
2.120399999999999  0.000000  0.000000  0.000000  -16.553478025099306  0.45034501457484916  12.884522527165101  65.52723781498446  8.47154344102934  -14.93491502487789  42.630546548763824  53.86803186162258  -45.86022786183184  21.097689198896738  120.000000
2.1482999999999994  0.000000  0.000000  0.000000  -16.160771714539838  -0.032639377508287916  11.682285688701068  64.80922470462467  8.49429252292674  -15.282538606757935  43.00763169555206  52.42302784069862  -44.89572267351763  21.060890107217027  120.000000
2.1761999999999992  0.000000  0.000000  0.000000  -15.78471747784027  -0.4624416782627652  10.519617372709863  64.0818544915546  8.4903068054813  -15.538021202480927  43.335822586507824  50.809131076837964  -43.88007676073628  21.095938409392073  120.000000
2.204099999999999  0.000000  0.000000  0.000000  -15.428276399997008  -0.844057077663865  9.400666239255228  63.35672617724525  8.464663371175355  -15.707466492482343  43.6065735299696  49.03698156547209  -42.811130196315034  21.19307849417319  120.000000
2.2319999999999993  0.000000  0.000000  0.000000  -15.094128897464207  -1.1807514357786835  8.328337492142955  62.642924087239095  8.42401936906696  -15.798205002435  43.81775594496576  47.1218184962052  -41.69090539451436  21.33756786690512  120.000000
2.259899999999999  0.000000  0.000000  0.000000  -14.785112374588  -1.4744156564084658  7.304515243572042  61.94717265767077  8.377327183639439  -15.818962053974387  43.97410277418456  45.08144374102233  -40.525946962586154  21.510962348006853  120.000000
2.2877999999999994  0.000000  0.000000  0.000000  -14.502539369485634  -1.7244905308504008  6.330488124356134  61.27391329212901  8.333412321975247  -15.77954367470372  44.08746786370221  42.93678213972431  -39.327761948891634  21.69281097415867  120.000000
2.315699999999999  0.000000  0.000000  0.000000  -14.246752655661199  -1.9294838331882296  5.407256698584812  60.62532179947652  8.300301391144382  -15.690400213139778  44.17297702026421  40.70950234499771  -38.10981511681113  21.86363451496047  120.000000
2.343599999999999  0.000000  0.000000  0.000000  -14.015621245421663  -2.0870268095327984  4.536238429130328  60.00206344135435  8.283145537401193  -15.56115505040782  44.24610501322527  38.422772741337575  -36.88526257275348  22.007922406127015  120.000000
2.3714999999999993  0.000000  0.000000  0.000000  -13.804347050978638  -2.1953246305699263  3.7182987493750477  59.40430116270295  8.284817341097087  -15.399390364559665  44.318005911514554  36.10043447630718  -35.663375601665535  22.117080237927226  120.000000
2.399399999999999  0.000000  0.000000  0.000000  -13.605146773803186  -2.2533170086819587  2.9541052066092632  58.832501828660696  8.304723649217928  -15.209841551139753  44.39309947012267  33.767509706293694  -34.44740303691117  22.190640385163178  120.000000
2.4272999999999993  0.000000  0.000000  0.000000  -13.408400326451112  -2.2620224457119438  2.242714358551269  58.28713146250266  8.340483763836895  -14.995110060770669  44.4667292952286  31.44910811641032  -33.23314438068889  22.234817194012756  120.000000
2.455199999999999  0.000000  0.000000  0.000000  -13.203880756220574  -2.2232849507358283  1.5824508489710396  57.768934729295275  8.387925352973014  -14.756934946498758  44.526826241289854  29.170924290931357  -32.010397467930275  22.25989631881105  120.000000
2.483099999999999  0.000000  0.000000  0.000000  -12.98271381441085  -2.14083328188532  0.970374337079354  57.277792283149594  8.443933508419992  -14.498001640849607  44.556700474285876  26.959059229590927  -30.766575213080003  22.276415795487996  120.000000
2.5109999999999992  0.000000  0.000000  0.000000  -12.738891520463852  -2.0187417546042004  0.4042691522540079  56.81242258981925  8.506937477329686  -14.22310768057233  44.54279369327932  24.840739156861446  -29.49405489756618  22.293076841451338  120.000000
2.538899999999999  0.000000  0.000000  0.000000  -12.471438089155532  -1.8627791598324537  -0.11768731497886949  56.36948058775687  8.577953655980064  -13.9415490927751  44.484216277804336  22.843667641981583  -28.200257441603412  22.314290097229744  120.000000
